# xmcd
#
# Track frame offsets:
#	150
#	10475
#	23939
#	38999
#	52345
#	66451
#	77276
#	88456
#	98998
#	110775
#	132276
#	146162
#	160620
#	175559
#	187638
#	199007
#	211963
#	222281
#	239018
#	248751
#	254171
#	270320
#	282137
#	293767
#	317430
#
# Disc length: 4370 seconds
#
# Revision: 0
# Processed by: cddbd v1.5.2PL0 Copyright (c) Steve Scherf et al.
# Submitted via: EZCDAudioConverter 2.1.7.1
#
DISCID=76111019
DTITLE=Henry Mancini - Classic Soundtrack Collection
DYEAR=1900
DGENRE=
TTITLE0=The Party [Vocal]
TTITLE1=Brunette In Yellow
TTITLE2=Nothing To Lose [Instrumental]
TTITLE3=Chicken Little Was Right
TTITLE4=Candlelight On Crystal
TTITLE5=Birdie Num-Num
TTITLE6=Nothing To Lose [Vocal]
TTITLE7=The Happy Pipers
TTITLE8=Party Poop
TTITLE9=Elegant
TTITLE10=Wiggy
TTITLE11=The Party [Instrumental]
TTITLE12=Nothing To Lose
TTITLE13=Ludmilla's Theme
TTITLE14=Pretty Girls
TTITLE15=Spaced Out
TTITLE16=Warm Up
TTITLE17=Soft Flight
TTITLE18=The Race
TTITLE19=Salute To The Olympians
TTITLE20=Olympic Village
TTITLE21=Ludmilla's Theme [Film Version]
TTITLE22=Hurdles And Girdles
TTITLE23=Theme For The Losers
TTITLE24=Salute To The Olympians (Finale)
EXTD=
EXTT0=
EXTT1=
EXTT2=
EXTT3=
EXTT4=
EXTT5=
EXTT6=
EXTT7=
EXTT8=
EXTT9=
EXTT10=
EXTT11=
EXTT12=
EXTT13=
EXTT14=
EXTT15=
EXTT16=
EXTT17=
EXTT18=
EXTT19=
EXTT20=
EXTT21=
EXTT22=
EXTT23=
EXTT24=
PLAYORDER=
